# xmcd
#
# Track frame offsets: 
#        150
#        16655
#        31927
#        48422
#        61887
#        78575
#        99740
#        118545
#        142945
#        166872
#        183070
#        199150
#        214882
#        244065
#        263475
#        281697
#
# Disc length: 3950 seconds
#
# Revision: 1
# Processed by: cddbd v1.5.2PL0 Copyright (c) Steve Scherf et al.
# Submitted via: ExactAudioCopyFreeDBPlugin 1.0
#
DISCID=d20f6c10
DTITLE=Eric Clapton - Lost Club Shows (СD 5)
DYEAR=2002
DGENRE=Blues
TTITLE0=Motherless Children
TTITLE1=Malted Milk
TTITLE2=How Long
TTITLE3=Kidman Blues
TTITLE4=County Jail
TTITLE5=Forty Four
TTITLE6=Blues All Day Long
TTITLE7=Going Away
TTITLE8=Standin' Around Crying
TTITLE9=Hoochie Coochie Man
TTITLE10=It Hurts Me Too
TTITLE11=Blues Before Sunrise
TTITLE12=Third Degree
TTITLE13=Reconsider Baby
TTITLE14=Sinner's Prayer
TTITLE15=I Can't Judge Nobody
EXTD=
EXTT0=
EXTT1=
EXTT2=
EXTT3=
EXTT4=
EXTT5=
EXTT6=
EXTT7=
EXTT8=
EXTT9=
EXTT10=
EXTT11=
EXTT12=
EXTT13=
EXTT14=
EXTT15=
PLAYORDER=
